<svg xmlns="http://www.w3.org/2000/svg" width="120" height="120" viewBox="0 0 120 120">
<g>
<path d="M 46.49 96.01 C41.37,100.95 36.58,104.99 35.84,104.97 C33.58,104.93 29.21,101.76 27.82,99.16 C25.85,95.48 25.90,20.03 27.87,17.65 C30.55,14.43 34.50,15.65 42.21,22.09 C49.38,28.08 78.53,54.15 88.67,63.66 C94.18,68.81 95.85,72.68 94.38,76.86 C93.33,79.84 91.68,80.29 75.95,81.85 C61.61,83.27 57.77,85.12 46.49,96.01 Z" fill="#a40000"/>
<path d="M 27.90 109.71 C26.03,108.45 23.38,105.42 22.00,102.96 L 19.50 98.50 L 19.20 57.53 C18.97,26.27 19.19,16.01 20.14,14.24 C23.21,8.49 33.88,7.46 40.62,12.25 C51.75,20.18 97.31,61.77 99.51,66.02 C102.93,72.63 100.20,83.83 94.67,85.94 C93.39,86.42 87.29,87.33 81.12,87.94 C64.86,89.57 61.14,91.27 49.12,102.53 C39.97,111.11 38.66,112.00 35.16,112.00 C32.79,112.00 29.98,111.12 27.90,109.71 ZM 46.49 96.01 C57.77,85.12 61.61,83.27 75.95,81.85 C91.68,80.29 93.33,79.84 94.38,76.86 C95.85,72.68 94.18,68.81 88.67,63.66 C78.53,54.15 49.38,28.08 42.21,22.09 C34.50,15.65 30.55,14.43 27.87,17.65 C25.90,20.03 25.85,95.48 27.82,99.16 C29.21,101.76 33.58,104.93 35.84,104.97 C36.58,104.99 41.37,100.95 46.49,96.01 Z" fill="#ffffff"/>
</g>
</svg>
