<?xml version="1.0" encoding="UTF-8"?>
<!-- Generator: visioncortex VTracer 0.6.4 -->
<svg version="1.1" xmlns="http://www.w3.org/2000/svg" width="120" height="120">
<path d="M0 0 C0.92425781 -0.04898437 1.84851563 -0.09796875 2.80078125 -0.1484375 C6.69693665 0.55803723 9.24643195 2.32695616 11.6875 5.375 C12.29575203 8.41314165 12.51159156 10.66063315 12.46386719 13.69433594 C12.4743811 14.5194165 12.48489502 15.34449707 12.49572754 16.19458008 C12.52209206 18.91695361 12.50466403 21.63697844 12.484375 24.359375 C12.48841921 26.25881395 12.49424436 28.15824987 12.50177002 30.05767822 C12.51061297 34.03907837 12.49777437 38.01967046 12.46972656 42.00097656 C12.43563303 47.08659525 12.45516523 52.17030766 12.49116135 57.25585556 C12.51292819 61.18009584 12.50590178 65.10389053 12.49039459 69.02814484 C12.48641072 70.90190103 12.49123812 72.77569856 12.50527191 74.64940643 C12.60852491 92.31844646 12.60852491 92.31844646 7.19171143 98.89093018 C3.71393864 102.3221351 0.9556166 103.61054039 -3.875 104.25 C-10.99278661 104.05991074 -15.11942099 98.53636628 -19.81884766 93.8203125 C-22.05928295 91.65238558 -24.4522132 89.7538628 -26.9375 87.875 C-27.73414063 87.2665625 -28.53078125 86.658125 -29.3515625 86.03125 C-37.7485476 81.3342557 -47.12461194 80.5921318 -56.54101562 79.734375 C-61.15283952 79.21095692 -63.67956218 78.86701959 -67.41796875 75.9609375 C-70.13477784 72.25263313 -70.58183295 69.19127406 -70.8125 64.6875 C-70.8846875 63.69363281 -70.956875 62.69976562 -71.03125 61.67578125 C-69.94045579 56.6664274 -66.84601202 53.95481897 -63.3125 50.375 C-62.63912598 49.67656982 -61.96575195 48.97813965 -61.27197266 48.25854492 C-59.159902 46.08872814 -57.02191061 43.94781614 -54.875 41.8125 C-54.16279297 41.09642578 -53.45058594 40.38035156 -52.71679688 39.64257812 C-48.6468069 35.57998141 -44.47921142 31.69474364 -40.12329102 27.94067383 C-37.70038923 25.84574743 -35.3525901 23.6733103 -33 21.5 C-9.79532871 0.35225248 -9.79532871 0.35225248 0 0 Z " fill="#a40000" transform="translate(89.3125,8.625)"/>
<path d="M0 0 C0.92425781 -0.04898437 1.84851563 -0.09796875 2.80078125 -0.1484375 C6.69693665 0.55803723 9.24643195 2.32695616 11.6875 5.375 C12.29575203 8.41314165 12.51159156 10.66063315 12.46386719 13.69433594 C12.4743811 14.5194165 12.48489502 15.34449707 12.49572754 16.19458008 C12.52209206 18.91695361 12.50466403 21.63697844 12.484375 24.359375 C12.48841921 26.25881395 12.49424436 28.15824987 12.50177002 30.05767822 C12.51061297 34.03907837 12.49777437 38.01967046 12.46972656 42.00097656 C12.43563303 47.08659525 12.45516523 52.17030766 12.49116135 57.25585556 C12.51292819 61.18009584 12.50590178 65.10389053 12.49039459 69.02814484 C12.48641072 70.90190103 12.49123812 72.77569856 12.50527191 74.64940643 C12.60852491 92.31844646 12.60852491 92.31844646 7.19171143 98.89093018 C3.71393864 102.3221351 0.9556166 103.61054039 -3.875 104.25 C-10.99278661 104.05991074 -15.11942099 98.53636628 -19.81884766 93.8203125 C-22.05928295 91.65238558 -24.4522132 89.7538628 -26.9375 87.875 C-27.73414063 87.2665625 -28.53078125 86.658125 -29.3515625 86.03125 C-37.7485476 81.3342557 -47.12461194 80.5921318 -56.54101562 79.734375 C-61.15283952 79.21095692 -63.67956218 78.86701959 -67.41796875 75.9609375 C-70.13477784 72.25263313 -70.58183295 69.19127406 -70.8125 64.6875 C-70.8846875 63.69363281 -70.956875 62.69976562 -71.03125 61.67578125 C-69.94045579 56.6664274 -66.84601202 53.95481897 -63.3125 50.375 C-62.63912598 49.67656982 -61.96575195 48.97813965 -61.27197266 48.25854492 C-59.159902 46.08872814 -57.02191061 43.94781614 -54.875 41.8125 C-54.16279297 41.09642578 -53.45058594 40.38035156 -52.71679688 39.64257812 C-48.6468069 35.57998141 -44.47921142 31.69474364 -40.12329102 27.94067383 C-37.70038923 25.84574743 -35.3525901 23.6733103 -33 21.5 C-9.79532871 0.35225248 -9.79532871 0.35225248 0 0 Z M-23.54296875 23.78515625 C-25.76538166 25.86337876 -28.01004967 27.88717021 -30.3125 29.875 C-34.2406169 33.27936798 -38.06018479 36.79893161 -41.88183594 40.3215332 C-44.73744195 42.94852777 -47.62105922 45.5321661 -50.5625 48.0625 C-58.70361993 54.73031115 -58.70361993 54.73031115 -64.3125 63.375 C-64.47698881 66.47148876 -64.47698881 66.47148876 -63.3125 69.375 C-58.38497058 72.5929784 -53.81723563 72.92590656 -48.125 73.3125 C-34.20446382 74.55298331 -25.33726044 78.6467786 -15.2265625 88.30859375 C-14.69216553 88.81447021 -14.15776855 89.32034668 -13.60717773 89.84155273 C-12.54994391 90.85028517 -11.50468249 91.87174288 -10.47290039 92.90649414 C-8.87228993 94.49986967 -8.87228993 94.49986967 -6.3125 96.375 C-2.45127937 96.25778437 -0.12200395 93.88077379 2.6875 91.375 C4.19414551 88.36170898 3.84354857 85.24925324 3.84863281 81.94360352 C3.85359772 81.17759827 3.85856262 80.41159302 3.86367798 79.62237549 C3.87830937 77.08287668 3.88510267 74.54344032 3.890625 72.00390625 C3.89637498 70.24275205 3.90213273 68.48159788 3.90789795 66.72044373 C3.91841026 63.02578438 3.92425164 59.33114681 3.92773438 55.63647461 C3.93322423 50.89710177 3.95726166 46.15801549 3.98570633 41.41873264 C4.00430762 37.78052421 4.00953693 34.1423852 4.01107025 30.50413322 C4.01410223 28.75658537 4.02214906 27.00903889 4.03525543 25.26153755 C4.05226631 22.81939848 4.05044829 20.37796491 4.04394531 17.93579102 C4.0531601 17.21101059 4.06237488 16.48623016 4.0718689 15.73948669 C4.0479078 12.87425025 3.99108535 10.84568108 2.41522217 8.40245056 C-5.73452882 3.5559154 -17.80550734 18.40302202 -23.54296875 23.78515625 Z " fill="#ffffff" transform="translate(89.3125,8.625)"/>
</svg>
